<?xml version="1.0" encoding="utf-8"?>
<!-- Generator: Adobe Illustrator 16.0.0, SVG Export Plug-In . SVG Version: 6.00 Build 0)  -->
<!DOCTYPE svg PUBLIC "-//W3C//DTD SVG 1.1//EN" "http://www.w3.org/Graphics/SVG/1.1/DTD/svg11.dtd">
<svg version="1.1" id="Layer_1" xmlns="http://www.w3.org/2000/svg" xmlns:xlink="http://www.w3.org/1999/xlink" x="0px" y="0px"
	 width="282.028px" height="258.026px" viewBox="0 0 282.028 258.026" enable-background="new 0 0 282.028 258.026"
	 xml:space="preserve">
<g>
	<defs>
		<rect id="SVGID_1_" x="937.334" y="-77.796" width="1200" height="620"/>
	</defs>
	<clipPath id="SVGID_2_">
		<use xlink:href="#SVGID_1_"  overflow="visible"/>
	</clipPath>
	<g clip-path="url(#SVGID_2_)">
		<defs>
			<rect id="SVGID_3_" x="937.334" y="-77.796" width="1200" height="620"/>
		</defs>
		<clipPath id="SVGID_4_">
			<use xlink:href="#SVGID_3_"  overflow="visible"/>
		</clipPath>
		<g opacity="0.5" clip-path="url(#SVGID_4_)">
			<g>
				<defs>
					<rect id="SVGID_5_" x="-63.536" y="-84.796" width="2828.15" height="637.089"/>
				</defs>
				<clipPath id="SVGID_6_">
					<use xlink:href="#SVGID_5_"  overflow="visible"/>
				</clipPath>
				<g clip-path="url(#SVGID_6_)">
					<defs>
						<rect id="SVGID_7_" x="937.334" y="-77.796" width="1200" height="620"/>
					</defs>
					<clipPath id="SVGID_8_">
						<use xlink:href="#SVGID_7_"  overflow="visible"/>
					</clipPath>
					<g opacity="0.7" clip-path="url(#SVGID_8_)">
						<g>
							<defs>
								<rect id="SVGID_9_" x="-63.536" y="-84.796" width="2828.15" height="637.089"/>
							</defs>
							<clipPath id="SVGID_10_">
								<use xlink:href="#SVGID_9_"  overflow="visible"/>
							</clipPath>
							<g clip-path="url(#SVGID_10_)">
								<defs>
									<rect id="SVGID_11_" x="-63.536" y="-80.96" width="2828.146" height="626.328"/>
								</defs>
								<clipPath id="SVGID_12_">
									<use xlink:href="#SVGID_11_"  overflow="visible"/>
								</clipPath>
								<g clip-path="url(#SVGID_12_)">
									
										<image overflow="visible" width="16382" height="3628" xlink:href="BAB13940AD8949B1.jpg"  transform="matrix(0.1726 0 0 0.1726 -63.5361 -80.9604)">
									</image>
								</g>
							</g>
						</g>
					</g>
				</g>
			</g>
		</g>
		<g clip-path="url(#SVGID_4_)">
			<defs>
				<rect id="SVGID_13_" x="-318.103" y="-77.796" width="1200" height="620"/>
			</defs>
			<clipPath id="SVGID_14_">
				<use xlink:href="#SVGID_13_"  overflow="visible"/>
			</clipPath>
			<g opacity="0.7" clip-path="url(#SVGID_14_)">
				<g>
					<defs>
						<rect id="SVGID_15_" x="-318.346" y="-84.796" width="1649.502" height="637.089"/>
					</defs>
					<clipPath id="SVGID_16_">
						<use xlink:href="#SVGID_15_"  overflow="visible"/>
					</clipPath>
				</g>
			</g>
		</g>
	</g>
</g>
<g>
	<polygon fill="#FFFFFF" points="24.566,19.63 38.873,19.63 50.671,66.039 63.649,19.63 73.334,19.63 86.313,66.039 98.062,19.63 
		112.369,19.63 91.623,91.209 80.463,91.209 68.468,46.521 56.374,91.209 45.312,91.209 	"/>
	<polygon fill="#FFFFFF" points="135.937,62.106 135.937,91.209 121.926,91.209 121.926,19.631 135.937,19.631 135.937,48.636 
		158.945,48.636 158.945,19.631 172.956,19.631 172.956,91.209 158.945,91.209 158.945,62.106 	"/>
	<path fill="#FFFFFF" d="M186.741,55.267c0-3.779,0.502-7.345,1.511-10.701c1.008-3.352,2.504-6.495,4.488-9.424
		c3.402-4.942,7.669-8.762,12.803-11.457c5.132-2.69,10.739-4.038,16.818-4.038c4.565,0,8.968,0.883,13.203,2.646
		c4.237,1.765,8.024,4.299,11.363,7.605c3.431,3.434,6.047,7.292,7.842,11.574c1.795,4.284,2.693,8.787,2.693,13.511
		c0,4.913-0.843,9.528-2.529,13.843c-1.683,4.315-4.164,8.142-7.439,11.479c-3.307,3.496-7.156,6.181-11.552,8.055
		c-4.391,1.873-8.983,2.811-13.77,2.811c-5.134,0-9.858-0.914-14.172-2.74c-4.316-1.825-8.143-4.535-11.48-8.125
		c-3.213-3.402-5.647-7.221-7.298-11.458C187.566,64.614,186.741,60.086,186.741,55.267 M200.866,54.795
		c0,2.961,0.488,5.716,1.465,8.267c0.975,2.551,2.424,4.883,4.346,6.992c2.109,2.3,4.503,4.07,7.181,5.314
		c2.675,1.244,5.447,1.866,8.314,1.866c6.015,0,11.062-2.141,15.142-6.425c4.078-4.282,6.117-9.62,6.117-16.015
		c0-5.858-2.054-10.858-6.166-14.998c-4.108-4.144-9.046-6.214-14.809-6.214c-6.017,0-11.119,2.063-15.307,6.188
		C202.96,43.899,200.866,48.908,200.866,54.795"/>
	<polygon fill="#FFFFFF" points="121.461,93.223 135.767,93.223 147.566,139.631 160.544,93.223 170.229,93.223 183.208,139.631 
		194.957,93.223 209.263,93.223 188.517,164.802 177.358,164.802 165.362,120.114 153.268,164.802 142.207,164.802 	"/>
	<polygon fill="#FFFFFF" points="257.461,164.802 218.82,164.802 218.82,93.223 257.461,93.223 257.461,105.808 232.685,105.808 
		232.685,122.13 257.461,122.13 257.461,134.519 232.685,134.519 232.685,152.217 257.461,152.217 	"/>
	<path fill="#FFFFFF" d="M101.236,223.401l-5.555,14.994H81.178l27.776-71.579h12.094l27.383,71.579h-14.994l-5.654-14.994H101.236z
		 M123.162,210.126l-8.456-23.057l-8.652,23.057H123.162z"/>
	<path fill="#FFFFFF" d="M170.524,238.395h-14.011v-71.579h17.01c5.408,0,9.431,0.188,12.068,0.566
		c2.639,0.376,4.893,0.99,6.761,1.843c4.062,1.901,7.16,4.556,9.291,7.964c2.13,3.41,3.196,7.407,3.196,11.995
		c0,5.54-1.524,10.234-4.572,14.086c-3.048,3.85-7.196,6.3-12.438,7.349l17.895,27.776h-16.715l-18.485-33.233V238.395z
		 M170.524,201.622h3.097c5.669,0,9.972-1.024,12.906-3.071c2.932-2.049,4.399-5.04,4.399-8.974c0-3.801-1.229-6.603-3.687-8.405
		c-2.458-1.802-6.293-2.704-11.504-2.704h-5.211V201.622z"/>
	<polygon fill="#FFFFFF" points="257.461,238.395 218.82,238.395 218.82,166.816 257.461,166.816 257.461,179.401 232.685,179.401 
		232.685,195.723 257.461,195.723 257.461,208.112 232.685,208.112 232.685,225.81 257.461,225.81 	"/>
</g>
</svg>
